<svg width="50" height="50" viewBox="0 0 50 50" fill="none" xmlns="http://www.w3.org/2000/svg">
<rect width="50" height="50" rx="8" fill="#30343F"/>
<path d="M11.18 33.2C10.4867 33.2 9.87333 33.0867 9.34 32.86C8.82 32.62 8.38667 32.2867 8.04 31.86C7.69333 31.4333 7.42667 30.9333 7.24 30.36C7.05333 29.7733 6.94667 29.1333 6.92 28.44C6.90667 28.2 6.9 27.9867 6.9 27.8C6.9 27.6 6.90667 27.38 6.92 27.14C6.94667 26.4733 7.04667 25.8533 7.22 25.28C7.40667 24.7067 7.67333 24.2067 8.02 23.78C8.38 23.34 8.82 23 9.34 22.76C9.87333 22.52 10.4867 22.4 11.18 22.4C11.9 22.4 12.5067 22.5267 13 22.78C13.5067 23.02 13.9267 23.3333 14.26 23.72V19.28C14.26 19.1467 14.3 19.0333 14.38 18.94C14.4733 18.8467 14.5933 18.8 14.74 18.8H16.44C16.5733 18.8 16.6867 18.8467 16.78 18.94C16.8733 19.0333 16.92 19.1467 16.92 19.28V32.52C16.92 32.6533 16.8733 32.7667 16.78 32.86C16.6867 32.9533 16.5733 33 16.44 33H14.86C14.7133 33 14.5933 32.9533 14.5 32.86C14.42 32.7667 14.38 32.6533 14.38 32.52V31.78C14.0467 32.1933 13.62 32.5333 13.1 32.8C12.5933 33.0667 11.9533 33.2 11.18 33.2ZM11.92 31.06C12.48 31.06 12.9267 30.9333 13.26 30.68C13.5933 30.4267 13.84 30.1067 14 29.72C14.16 29.32 14.2467 28.9133 14.26 28.5C14.2733 28.26 14.28 28.0067 14.28 27.74C14.28 27.46 14.2733 27.2 14.26 26.96C14.2467 26.56 14.1533 26.18 13.98 25.82C13.8067 25.4467 13.5533 25.14 13.22 24.9C12.8867 24.66 12.4533 24.54 11.92 24.54C11.36 24.54 10.9133 24.6667 10.58 24.92C10.26 25.16 10.0267 25.48 9.88 25.88C9.73333 26.28 9.64667 26.72 9.62 27.2C9.60667 27.6 9.60667 28 9.62 28.4C9.64667 28.88 9.73333 29.32 9.88 29.72C10.0267 30.12 10.26 30.4467 10.58 30.7C10.9133 30.94 11.36 31.06 11.92 31.06ZM24.1856 33.2C23.119 33.2 22.219 33.0133 21.4856 32.64C20.7656 32.2667 20.2123 31.74 19.8256 31.06C19.4523 30.38 19.239 29.5867 19.1856 28.68C19.1723 28.44 19.1656 28.1467 19.1656 27.8C19.1656 27.4533 19.1723 27.16 19.1856 26.92C19.239 26 19.459 25.2067 19.8456 24.54C20.2456 23.86 20.8056 23.3333 21.5256 22.96C22.259 22.5867 23.1456 22.4 24.1856 22.4C25.2256 22.4 26.1056 22.5867 26.8256 22.96C27.559 23.3333 28.119 23.86 28.5056 24.54C28.9056 25.2067 29.1323 26 29.1856 26.92C29.199 27.16 29.2056 27.4533 29.2056 27.8C29.2056 28.1467 29.199 28.44 29.1856 28.68C29.1323 29.5867 28.9123 30.38 28.5256 31.06C28.1523 31.74 27.599 32.2667 26.8656 32.64C26.1456 33.0133 25.2523 33.2 24.1856 33.2ZM24.1856 31.22C24.8923 31.22 25.439 31 25.8256 30.56C26.2123 30.1067 26.4256 29.4467 26.4656 28.58C26.479 28.38 26.4856 28.12 26.4856 27.8C26.4856 27.48 26.479 27.22 26.4656 27.02C26.4256 26.1667 26.2123 25.5133 25.8256 25.06C25.439 24.6067 24.8923 24.38 24.1856 24.38C23.479 24.38 22.9323 24.6067 22.5456 25.06C22.159 25.5133 21.9456 26.1667 21.9056 27.02C21.8923 27.22 21.8856 27.48 21.8856 27.8C21.8856 28.12 21.8923 28.38 21.9056 28.58C21.9456 29.4467 22.159 30.1067 22.5456 30.56C22.9323 31 23.479 31.22 24.1856 31.22ZM37.0616 33.2C35.8216 33.2 34.7682 32.9867 33.9016 32.56C33.0482 32.12 32.3949 31.5 31.9416 30.7C31.4882 29.8867 31.2349 28.9133 31.1816 27.78C31.1682 27.2333 31.1616 26.6467 31.1616 26.02C31.1616 25.3933 31.1682 24.7933 31.1816 24.22C31.2349 23.1 31.4882 22.1333 31.9416 21.32C32.4082 20.5067 33.0682 19.8867 33.9216 19.46C34.7882 19.02 35.8349 18.8 37.0616 18.8C37.9682 18.8 38.7816 18.92 39.5016 19.16C40.2216 19.4 40.8349 19.7333 41.3416 20.16C41.8482 20.5733 42.2416 21.06 42.5216 21.62C42.8016 22.18 42.9482 22.7867 42.9616 23.44C42.9749 23.56 42.9349 23.66 42.8416 23.74C42.7616 23.82 42.6616 23.86 42.5416 23.86H40.6416C40.4949 23.86 40.3749 23.8267 40.2816 23.76C40.1882 23.68 40.1216 23.5533 40.0816 23.38C39.8682 22.5 39.5016 21.9 38.9816 21.58C38.4616 21.26 37.8149 21.1 37.0416 21.1C36.1482 21.1 35.4349 21.3533 34.9016 21.86C34.3682 22.3533 34.0816 23.1733 34.0416 24.32C34.0016 25.4133 34.0016 26.5333 34.0416 27.68C34.0816 28.8267 34.3682 29.6533 34.9016 30.16C35.4349 30.6533 36.1482 30.9 37.0416 30.9C37.8149 30.9 38.4616 30.74 38.9816 30.42C39.5016 30.0867 39.8682 29.4867 40.0816 28.62C40.1216 28.4333 40.1882 28.3067 40.2816 28.24C40.3749 28.1733 40.4949 28.14 40.6416 28.14H42.5416C42.6616 28.14 42.7616 28.18 42.8416 28.26C42.9349 28.34 42.9749 28.44 42.9616 28.56C42.9482 29.2133 42.8016 29.82 42.5216 30.38C42.2416 30.94 41.8482 31.4333 41.3416 31.86C40.8349 32.2733 40.2216 32.6 39.5016 32.84C38.7816 33.08 37.9682 33.2 37.0616 33.2Z" fill="white"/>
</svg>
