<svg width="120" height="40" viewBox="0 0 120 40" fill="none" xmlns="http://www.w3.org/2000/svg">
    <rect y="0.5" width="120" height="39" rx="8" fill="#2a55c7"/>
    <path d="M16.18 27.7C15.4867 27.7 14.8733 27.5867 14.34 27.36C13.82 27.12 13.3867 26.7867 13.04 26.36C12.6933 25.9333 12.4267 25.4333 12.24 24.86C12.0533 24.2733 11.9467 23.6333 11.92 22.94C11.9067 22.7 11.9 22.4867 11.9 22.3C11.9 22.1 11.9067 21.88 11.92 21.64C11.9467 20.9733 12.0467 20.3533 12.22 19.78C12.4067 19.2067 12.6733 18.7067 13.02 18.28C13.38 17.84 13.82 17.5 14.34 17.26C14.8733 17.02 15.4867 16.9 16.18 16.9C16.9 16.9 17.5067 17.0267 18 17.28C18.5067 17.52 18.9267 17.8333 19.26 18.22V13.78C19.26 13.6467 19.3 13.5333 19.38 13.44C19.4733 13.3467 19.5933 13.3 19.74 13.3H21.44C21.5733 13.3 21.6867 13.3467 21.78 13.44C21.8733 13.5333 21.92 13.6467 21.92 13.78V27.02C21.92 27.1533 21.8733 27.2667 21.78 27.36C21.6867 27.4533 21.5733 27.5 21.44 27.5H19.86C19.7133 27.5 19.5933 27.4533 19.5 27.36C19.42 27.2667 19.38 27.1533 19.38 27.02V26.28C19.0467 26.6933 18.62 27.0333 18.1 27.3C17.5933 27.5667 16.9533 27.7 16.18 27.7ZM16.92 25.56C17.48 25.56 17.9267 25.4333 18.26 25.18C18.5933 24.9267 18.84 24.6067 19 24.22C19.16 23.82 19.2467 23.4133 19.26 23C19.2733 22.76 19.28 22.5067 19.28 22.24C19.28 21.96 19.2733 21.7 19.26 21.46C19.2467 21.06 19.1533 20.68 18.98 20.32C18.8067 19.9467 18.5533 19.64 18.22 19.4C17.8867 19.16 17.4533 19.04 16.92 19.04C16.36 19.04 15.9133 19.1667 15.58 19.42C15.26 19.66 15.0267 19.98 14.88 20.38C14.7333 20.78 14.6467 21.22 14.62 21.7C14.6067 22.1 14.6067 22.5 14.62 22.9C14.6467 23.38 14.7333 23.82 14.88 24.22C15.0267 24.62 15.26 24.9467 15.58 25.2C15.9133 25.44 16.36 25.56 16.92 25.56ZM29.1856 27.7C28.119 27.7 27.219 27.5133 26.4856 27.14C25.7656 26.7667 25.2123 26.24 24.8256 25.56C24.4523 24.88 24.239 24.0867 24.1856 23.18C24.1723 22.94 24.1656 22.6467 24.1656 22.3C24.1656 21.9533 24.1723 21.66 24.1856 21.42C24.239 20.5 24.459 19.7067 24.8456 19.04C25.2456 18.36 25.8056 17.8333 26.5256 17.46C27.259 17.0867 28.1456 16.9 29.1856 16.9C30.2256 16.9 31.1056 17.0867 31.8256 17.46C32.559 17.8333 33.119 18.36 33.5056 19.04C33.9056 19.7067 34.1323 20.5 34.1856 21.42C34.199 21.66 34.2056 21.9533 34.2056 22.3C34.2056 22.6467 34.199 22.94 34.1856 23.18C34.1323 24.0867 33.9123 24.88 33.5256 25.56C33.1523 26.24 32.599 26.7667 31.8656 27.14C31.1456 27.5133 30.2523 27.7 29.1856 27.7ZM29.1856 25.72C29.8923 25.72 30.439 25.5 30.8256 25.06C31.2123 24.6067 31.4256 23.9467 31.4656 23.08C31.479 22.88 31.4856 22.62 31.4856 22.3C31.4856 21.98 31.479 21.72 31.4656 21.52C31.4256 20.6667 31.2123 20.0133 30.8256 19.56C30.439 19.1067 29.8923 18.88 29.1856 18.88C28.479 18.88 27.9323 19.1067 27.5456 19.56C27.159 20.0133 26.9456 20.6667 26.9056 21.52C26.8923 21.72 26.8856 21.98 26.8856 22.3C26.8856 22.62 26.8923 22.88 26.9056 23.08C26.9456 23.9467 27.159 24.6067 27.5456 25.06C27.9323 25.5 28.479 25.72 29.1856 25.72ZM42.0616 27.7C40.8216 27.7 39.7682 27.4867 38.9016 27.06C38.0482 26.62 37.3949 26 36.9416 25.2C36.4882 24.3867 36.2349 23.4133 36.1816 22.28C36.1682 21.7333 36.1616 21.1467 36.1616 20.52C36.1616 19.8933 36.1682 19.2933 36.1816 18.72C36.2349 17.6 36.4882 16.6333 36.9416 15.82C37.4082 15.0067 38.0682 14.3867 38.9216 13.96C39.7882 13.52 40.8349 13.3 42.0616 13.3C42.9682 13.3 43.7816 13.42 44.5016 13.66C45.2216 13.9 45.8349 14.2333 46.3416 14.66C46.8482 15.0733 47.2416 15.56 47.5216 16.12C47.8016 16.68 47.9482 17.2867 47.9616 17.94C47.9749 18.06 47.9349 18.16 47.8416 18.24C47.7616 18.32 47.6616 18.36 47.5416 18.36H45.6416C45.4949 18.36 45.3749 18.3267 45.2816 18.26C45.1882 18.18 45.1216 18.0533 45.0816 17.88C44.8682 17 44.5016 16.4 43.9816 16.08C43.4616 15.76 42.8149 15.6 42.0416 15.6C41.1482 15.6 40.4349 15.8533 39.9016 16.36C39.3682 16.8533 39.0816 17.6733 39.0416 18.82C39.0016 19.9133 39.0016 21.0333 39.0416 22.18C39.0816 23.3267 39.3682 24.1533 39.9016 24.66C40.4349 25.1533 41.1482 25.4 42.0416 25.4C42.8149 25.4 43.4616 25.24 43.9816 24.92C44.5016 24.5867 44.8682 23.9867 45.0816 23.12C45.1216 22.9333 45.1882 22.8067 45.2816 22.74C45.3749 22.6733 45.4949 22.64 45.6416 22.64H47.5416C47.6616 22.64 47.7616 22.68 47.8416 22.76C47.9349 22.84 47.9749 22.94 47.9616 23.06C47.9482 23.7133 47.8016 24.32 47.5216 24.88C47.2416 25.44 46.8482 25.9333 46.3416 26.36C45.8349 26.7733 45.2216 27.1 44.5016 27.34C43.7816 27.58 42.9682 27.7 42.0616 27.7ZM50.5734 27.5C50.4401 27.5 50.3268 27.4533 50.2334 27.36C50.1401 27.2667 50.0934 27.1533 50.0934 27.02V17.6C50.0934 17.4533 50.1401 17.3333 50.2334 17.24C50.3268 17.1467 50.4401 17.1 50.5734 17.1H52.1934C52.3268 17.1 52.4401 17.1467 52.5334 17.24C52.6401 17.3333 52.6934 17.4533 52.6934 17.6V18.42C53.0001 17.9933 53.3934 17.6667 53.8734 17.44C54.3668 17.2133 54.9334 17.1 55.5734 17.1H56.3934C56.5401 17.1 56.6534 17.1467 56.7334 17.24C56.8268 17.3333 56.8734 17.4467 56.8734 17.58V19.02C56.8734 19.1533 56.8268 19.2667 56.7334 19.36C56.6534 19.4533 56.5401 19.5 56.3934 19.5H54.8334C54.1934 19.5 53.6934 19.68 53.3334 20.04C52.9868 20.4 52.8134 20.8933 52.8134 21.52V27.02C52.8134 27.1533 52.7668 27.2667 52.6734 27.36C52.5801 27.4533 52.4601 27.5 52.3134 27.5H50.5734ZM62.7766 27.7C61.2966 27.7 60.1232 27.2733 59.2566 26.42C58.3899 25.5667 57.9232 24.3533 57.8566 22.78C57.8432 22.6467 57.8366 22.48 57.8366 22.28C57.8366 22.0667 57.8432 21.9 57.8566 21.78C57.9099 20.78 58.1366 19.9133 58.5366 19.18C58.9499 18.4467 59.5166 17.8867 60.2366 17.5C60.9566 17.1 61.8032 16.9 62.7766 16.9C63.8566 16.9 64.7632 17.1267 65.4966 17.58C66.2299 18.02 66.7832 18.64 67.1566 19.44C67.5299 20.2267 67.7166 21.14 67.7166 22.18V22.6C67.7166 22.7333 67.6699 22.8467 67.5766 22.94C67.4832 23.0333 67.3632 23.08 67.2166 23.08H60.5766C60.5766 23.08 60.5766 23.1 60.5766 23.14C60.5766 23.18 60.5766 23.2133 60.5766 23.24C60.5899 23.7067 60.6766 24.14 60.8366 24.54C61.0099 24.9267 61.2566 25.24 61.5766 25.48C61.9099 25.72 62.3032 25.84 62.7566 25.84C63.1299 25.84 63.4432 25.7867 63.6966 25.68C63.9499 25.56 64.1566 25.4267 64.3166 25.28C64.4766 25.1333 64.5899 25.0133 64.6566 24.92C64.7766 24.76 64.8699 24.6667 64.9366 24.64C65.0166 24.6 65.1299 24.58 65.2766 24.58H66.9966C67.1299 24.58 67.2366 24.62 67.3166 24.7C67.4099 24.78 67.4499 24.88 67.4366 25C67.4232 25.2133 67.3099 25.4733 67.0966 25.78C66.8966 26.0867 66.6032 26.3867 66.2166 26.68C65.8299 26.9733 65.3432 27.22 64.7566 27.42C64.1832 27.6067 63.5232 27.7 62.7766 27.7ZM60.5766 21.4H64.9966V21.34C64.9966 20.82 64.9099 20.3667 64.7366 19.98C64.5632 19.5933 64.3099 19.2867 63.9766 19.06C63.6432 18.8333 63.2432 18.72 62.7766 18.72C62.3099 18.72 61.9099 18.8333 61.5766 19.06C61.2432 19.2867 60.9899 19.5933 60.8166 19.98C60.6566 20.3667 60.5766 20.82 60.5766 21.34V21.4ZM72.8595 27.7C72.1662 27.7 71.5395 27.5667 70.9795 27.3C70.4195 27.02 69.9729 26.6533 69.6395 26.2C69.3195 25.7333 69.1595 25.2133 69.1595 24.64C69.1595 23.7067 69.5329 22.9667 70.2795 22.42C71.0395 21.86 72.0395 21.4867 73.2795 21.3L76.0195 20.9V20.48C76.0195 19.92 75.8795 19.4867 75.5995 19.18C75.3195 18.8733 74.8395 18.72 74.1595 18.72C73.6795 18.72 73.2862 18.82 72.9795 19.02C72.6862 19.2067 72.4662 19.46 72.3195 19.78C72.2129 19.9533 72.0595 20.04 71.8595 20.04H70.2795C70.1329 20.04 70.0195 20 69.9395 19.92C69.8729 19.84 69.8395 19.7333 69.8395 19.6C69.8529 19.3867 69.9395 19.1267 70.0995 18.82C70.2595 18.5133 70.5129 18.22 70.8595 17.94C71.2062 17.6467 71.6529 17.4 72.1995 17.2C72.7462 17 73.4062 16.9 74.1795 16.9C75.0195 16.9 75.7262 17.0067 76.2995 17.22C76.8862 17.42 77.3529 17.6933 77.6995 18.04C78.0462 18.3867 78.2995 18.7933 78.4595 19.26C78.6195 19.7267 78.6995 20.22 78.6995 20.74V27.02C78.6995 27.1533 78.6529 27.2667 78.5595 27.36C78.4662 27.4533 78.3529 27.5 78.2195 27.5H76.5995C76.4529 27.5 76.3329 27.4533 76.2395 27.36C76.1595 27.2667 76.1195 27.1533 76.1195 27.02V26.24C75.9462 26.4933 75.7129 26.7333 75.4195 26.96C75.1262 27.1733 74.7662 27.3533 74.3395 27.5C73.9262 27.6333 73.4329 27.7 72.8595 27.7ZM73.5395 25.8C74.0062 25.8 74.4262 25.7 74.7995 25.5C75.1862 25.3 75.4862 24.9933 75.6995 24.58C75.9262 24.1533 76.0395 23.62 76.0395 22.98V22.56L74.0395 22.88C73.2529 23 72.6662 23.1933 72.2795 23.46C71.8929 23.7267 71.6995 24.0533 71.6995 24.44C71.6995 24.7333 71.7862 24.9867 71.9595 25.2C72.1462 25.4 72.3795 25.5533 72.6595 25.66C72.9395 25.7533 73.2329 25.8 73.5395 25.8ZM85.8677 27.5C85.0677 27.5 84.3943 27.36 83.8477 27.08C83.301 26.8 82.8943 26.3867 82.6277 25.84C82.361 25.28 82.2277 24.5867 82.2277 23.76V19.22H80.6477C80.5143 19.22 80.401 19.1733 80.3077 19.08C80.2143 18.9867 80.1677 18.8733 80.1677 18.74V17.58C80.1677 17.4467 80.2143 17.3333 80.3077 17.24C80.401 17.1467 80.5143 17.1 80.6477 17.1H82.2277V13.78C82.2277 13.6467 82.2677 13.5333 82.3477 13.44C82.441 13.3467 82.561 13.3 82.7077 13.3H84.3277C84.461 13.3 84.5743 13.3467 84.6677 13.44C84.761 13.5333 84.8077 13.6467 84.8077 13.78V17.1H87.3077C87.441 17.1 87.5543 17.1467 87.6477 17.24C87.741 17.3333 87.7877 17.4467 87.7877 17.58V18.74C87.7877 18.8733 87.741 18.9867 87.6477 19.08C87.5543 19.1733 87.441 19.22 87.3077 19.22H84.8077V23.56C84.8077 24.1067 84.901 24.5333 85.0877 24.84C85.2877 25.1467 85.6277 25.3 86.1077 25.3H87.4877C87.621 25.3 87.7343 25.3467 87.8277 25.44C87.921 25.5333 87.9677 25.6467 87.9677 25.78V27.02C87.9677 27.1533 87.921 27.2667 87.8277 27.36C87.7343 27.4533 87.621 27.5 87.4877 27.5H85.8677ZM94.3419 27.7C93.2752 27.7 92.3752 27.5133 91.6419 27.14C90.9219 26.7667 90.3685 26.24 89.9819 25.56C89.6085 24.88 89.3952 24.0867 89.3419 23.18C89.3285 22.94 89.3219 22.6467 89.3219 22.3C89.3219 21.9533 89.3285 21.66 89.3419 21.42C89.3952 20.5 89.6152 19.7067 90.0019 19.04C90.4019 18.36 90.9619 17.8333 91.6819 17.46C92.4152 17.0867 93.3019 16.9 94.3419 16.9C95.3819 16.9 96.2619 17.0867 96.9819 17.46C97.7152 17.8333 98.2752 18.36 98.6619 19.04C99.0619 19.7067 99.2885 20.5 99.3419 21.42C99.3552 21.66 99.3619 21.9533 99.3619 22.3C99.3619 22.6467 99.3552 22.94 99.3419 23.18C99.2885 24.0867 99.0685 24.88 98.6819 25.56C98.3085 26.24 97.7552 26.7667 97.0219 27.14C96.3019 27.5133 95.4085 27.7 94.3419 27.7ZM94.3419 25.72C95.0485 25.72 95.5952 25.5 95.9819 25.06C96.3685 24.6067 96.5819 23.9467 96.6219 23.08C96.6352 22.88 96.6419 22.62 96.6419 22.3C96.6419 21.98 96.6352 21.72 96.6219 21.52C96.5819 20.6667 96.3685 20.0133 95.9819 19.56C95.5952 19.1067 95.0485 18.88 94.3419 18.88C93.6352 18.88 93.0885 19.1067 92.7019 19.56C92.3152 20.0133 92.1019 20.6667 92.0619 21.52C92.0485 21.72 92.0419 21.98 92.0419 22.3C92.0419 22.62 92.0485 22.88 92.0619 23.08C92.1019 23.9467 92.3152 24.6067 92.7019 25.06C93.0885 25.5 93.6352 25.72 94.3419 25.72ZM102.058 27.5C101.924 27.5 101.811 27.4533 101.718 27.36C101.624 27.2667 101.578 27.1533 101.578 27.02V17.6C101.578 17.4533 101.624 17.3333 101.718 17.24C101.811 17.1467 101.924 17.1 102.058 17.1H103.678C103.811 17.1 103.924 17.1467 104.018 17.24C104.124 17.3333 104.178 17.4533 104.178 17.6V18.42C104.484 17.9933 104.878 17.6667 105.358 17.44C105.851 17.2133 106.418 17.1 107.058 17.1H107.878C108.024 17.1 108.138 17.1467 108.218 17.24C108.311 17.3333 108.358 17.4467 108.358 17.58V19.02C108.358 19.1533 108.311 19.2667 108.218 19.36C108.138 19.4533 108.024 19.5 107.878 19.5H106.318C105.678 19.5 105.178 19.68 104.818 20.04C104.471 20.4 104.298 20.8933 104.298 21.52V27.02C104.298 27.1533 104.251 27.2667 104.158 27.36C104.064 27.4533 103.944 27.5 103.798 27.5H102.058Z" fill="white"/>
</svg>
